<svg xmlns="http://www.w3.org/2000/svg" xmlns:xlink="http://www.w3.org/1999/xlink" xmlns:fi="http://pattern.flaticon.com/" x="0" y="0" width="500" height="250" viewBox="0 0 1750 875"><rect x="0px" y="0px" width="100%" height="100%" opacity="1" fill="#ffffff"/><defs><g transform="matrix(0.12765957415103912 0 0 0.12765957415103912 281 275)" id="L1_1"><path d="M190.132,285.219l-13.312,33.405c-0.762,1.913-2.277,3.429-4.19,4.19l-37.036,14.76   c-0.91,0.363-1.851,0.535-2.774,0.535c-2.98,0-5.799-1.788-6.969-4.726c-1.534-3.848,0.343-8.21,4.19-9.743l34.039-13.565   l14.506-36.402l-28.066-28.066l-93.162,93.162l36.733,36.733l10.544-26.458c1.533-3.849,5.897-5.725,9.743-4.19   c3.848,1.533,5.725,5.896,4.19,9.743l-12.933,32.45l25.595,25.595l93.162-93.162L190.132,285.219z" fill="#e0dcd7"/><path d="M387.048,105.635l-44.615,17.779l-19.608,49.205c-0.762,1.913-2.277,3.429-4.19,4.19l-33.419,13.317   l34.267,34.267l93.162-93.162L387.048,105.635z" fill="#e0dcd7"/><path d="M120.624,423.25l-29.032-29.032c-0.016-0.016-0.032-0.032-0.048-0.048L46.75,349.376L18.107,378.02   l73.874,73.874L120.624,423.25z" fill="#e0dcd7"/><path d="M349.377,46.75l44.778,44.778c0.026,0.026,0.052,0.051,0.077,0.077l29.019,29.019l28.643-28.643   L378.02,18.106L349.377,46.75z" fill="#e0dcd7"/><path d="M273.668,178.58l36.416-14.511l19.608-49.205c0.762-1.913,2.277-3.429,4.19-4.19l41.619-16.584   l-36.733-36.733l-93.162,93.162L273.668,178.58z" fill="#e0dcd7"/><path d="M378.02,451.894l73.874-73.874L91.981,18.106L18.107,91.98L378.02,451.894z M372.682,349.92   c4.411,0,8,3.589,8,8s-3.589,8-8,8s-8-3.589-8-8S368.271,349.92,372.682,349.92z M364,383.721c4.411,0,8,3.589,8,8s-3.589,8-8,8   s-8-3.589-8-8S359.589,383.721,364,383.721z M102.682,85.92c-4.411,0-8-3.589-8-8s3.589-8,8-8s8,3.589,8,8   S107.093,85.92,102.682,85.92z" fill="#a3e175"/><path d="M330.088,235L467.804,97.284c2.929-2.93,2.929-7.678,0-10.607l-84.48-84.48   c-2.93-2.928-7.678-2.928-10.607,0L235,139.912L97.284,2.196c-2.93-2.928-7.678-2.928-10.607,0l-84.48,84.48   c-2.929,2.93-2.929,7.678,0,10.607L139.912,235L2.197,372.716c-2.929,2.93-2.929,7.678,0,10.607l84.48,84.48   c1.465,1.464,3.385,2.196,5.304,2.196s3.839-0.732,5.304-2.196L235,330.088l137.716,137.716c1.465,1.464,3.385,2.196,5.304,2.196   s3.839-0.732,5.304-2.196l84.48-84.48c2.929-2.93,2.929-7.678,0-10.607L330.088,235z M46.75,349.376l44.794,44.794   c0.016,0.016,0.032,0.032,0.048,0.048l29.032,29.032l-28.643,28.643L18.107,378.02L46.75,349.376z M105.636,387.048l12.933-32.45   c1.534-3.848-0.343-8.21-4.19-9.743c-3.846-1.534-8.21,0.342-9.743,4.19l-10.544,26.458l-36.733-36.733l93.162-93.162   l28.066,28.066l-14.506,36.402l-34.039,13.565c-3.848,1.533-5.725,5.896-4.19,9.743c1.17,2.938,3.988,4.726,6.969,4.726   c0.924,0,1.864-0.172,2.774-0.535l37.036-14.76c1.913-0.762,3.429-2.277,4.19-4.19l13.312-33.405l34.262,34.262l-93.162,93.162   L105.636,387.048z M18.107,91.98l73.874-73.874L451.894,378.02l-73.874,73.874L18.107,91.98z M285.215,190.126l33.419-13.317   c1.913-0.762,3.429-2.277,4.19-4.19l19.608-49.205l44.615-17.779l25.596,25.596l-93.162,93.162L285.215,190.126z M423.251,120.624   l-29.019-29.019c-0.026-0.026-0.052-0.052-0.077-0.077L349.377,46.75l28.643-28.643l73.874,73.874L423.251,120.624z M375.502,94.09   l-41.619,16.584c-1.913,0.762-3.429,2.277-4.19,4.19l-19.608,49.205l-36.416,14.511l-28.061-28.061l93.162-93.162L375.502,94.09z" fill="#3d2a20"/><path d="M372.682,365.92c4.411,0,8-3.589,8-8s-3.589-8-8-8s-8,3.589-8,8S368.271,365.92,372.682,365.92z" fill="#3d2a20"/><path d="M364,399.721c4.411,0,8-3.589,8-8s-3.589-8-8-8s-8,3.589-8,8S359.589,399.721,364,399.721z" fill="#3d2a20"/><path d="M102.682,69.92c-4.411,0-8,3.589-8,8s3.589,8,8,8s8-3.589,8-8S107.093,69.92,102.682,69.92z" fill="#3d2a20"/></g><g transform="matrix(0.1276576668024063 0 0 0.1276576668024063 113 193.00000028049772)" id="L1_2"><path d="M411.521,15.003c-11.614,0-22.533,4.522-30.746,12.733L55.39,353.116   c1.025-0.054,2.057-0.083,3.095-0.083c32.249,0,58.485,26.236,58.485,58.485c0,1.039-0.029,2.07-0.083,3.096l325.38-325.373   c8.215-8.214,12.74-19.136,12.74-30.752C455.007,34.511,435.5,15.003,411.521,15.003z M383.434,115.003c-4.411,0-8-3.589-8-8   s3.589-8,8-8s8,3.589,8,8S387.845,115.003,383.434,115.003z M397.434,76.003c-4.411,0-8-3.589-8-8s3.589-8,8-8s8,3.589,8,8   S401.845,76.003,397.434,76.003z" fill="#e7453f"/><path d="M58.485,455.003c23.978,0,43.485-19.507,43.485-43.485s-19.507-43.485-43.485-43.485   S15,387.54,15,411.518S34.507,455.003,58.485,455.003z M58.485,378.033c18.464,0,33.485,15.021,33.485,33.485   s-15.021,33.485-33.485,33.485S25,429.982,25,411.518S40.021,378.033,58.485,378.033z" fill="#ec6a65"/><path d="M58.485,430.003c10.193,0,18.485-8.292,18.485-18.485s-8.292-18.485-18.485-18.485   S40,401.325,40,411.518S48.292,430.003,58.485,430.003z" fill="#ffffff"/><path d="M58.485,445.003c18.464,0,33.485-15.021,33.485-33.485s-15.021-33.485-33.485-33.485   S25,393.054,25,411.518S40.021,445.003,58.485,445.003z M58.485,393.033c10.193,0,18.485,8.292,18.485,18.485   s-8.292,18.485-18.485,18.485S40,421.711,40,411.518S48.292,393.033,58.485,393.033z" fill="#3d2a20"/><path d="M470.007,58.489c0-32.249-26.236-58.485-58.485-58.485c-15.62,0-30.306,6.082-41.352,17.126    L16.586,370.773C6.333,381.313,0,395.686,0,411.518c0,32.249,26.236,58.485,58.485,58.485c15.829,0,30.199-6.33,40.739-16.58    L452.873,99.848C463.922,88.801,470.007,74.113,470.007,58.489z M58.485,455.003C34.507,455.003,15,435.496,15,411.518    s19.507-43.485,43.485-43.485s43.485,19.507,43.485,43.485S82.463,455.003,58.485,455.003z M116.888,414.614    c0.054-1.026,0.083-2.057,0.083-3.096c0-32.249-26.236-58.485-58.485-58.485c-1.038,0-2.07,0.029-3.095,0.083L380.776,27.737    c8.213-8.211,19.132-12.733,30.746-12.733c23.978,0,43.485,19.507,43.485,43.485c0,11.617-4.524,22.538-12.74,30.752    L116.888,414.614z" fill="#3d2a20"/><path d="M383.434,99.003c-4.411,0-8,3.589-8,8s3.589,8,8,8s8-3.589,8-8S387.845,99.003,383.434,99.003z" fill="#3d2a20"/><path d="M397.434,60.003c-4.411,0-8,3.589-8,8s3.589,8,8,8s8-3.589,8-8S401.845,60.003,397.434,60.003z" fill="#3d2a20"/></g><g transform="matrix(0.12765957415103912 0 0 0.12765957415103912 117.99999728848076 24)" id="L1_3"><path d="M426.096,344.039c18.745-32.786,18.665-73.673-0.205-104.165c-0.508-0.823-1.027-1.632-1.561-2.432   c-1.658-2.487-1.681-5.722-0.058-8.232c0.523-0.81,1.031-1.628,1.528-2.449c18.295-30.234,17.968-70.565-0.833-102.749   c-12.623-21.601-33.023-38.434-55.972-46.184c-10.113-3.449-20.452-5.195-30.752-5.195c-0.872,0-1.741,0.014-2.607,0.039   c-0.962,0.026-1.915,0.072-2.869,0.131c-2.985,0.182-5.817-1.433-7.166-4.117c-0.381-0.757-0.778-1.505-1.175-2.252l-0.19-0.357   C307.789,35.048,272.761,15,234.999,15c-38.073,0-73.488,20.269-90.224,51.638l-0.323,0.605c-0.365,0.683-0.731,1.365-1.082,2.056   c-1.338,2.635-4.097,4.238-7.05,4.096c-0.966-0.047-1.933-0.079-2.896-0.094c-0.591-0.011-1.151-0.017-1.715-0.017   c-10.673,0-21.378,1.865-31.818,5.544c-23.064,8.043-43.463,25.22-55.989,47.134c-18.744,32.785-18.663,73.672,0.206,104.163   c0.511,0.828,1.031,1.637,1.564,2.438c1.654,2.487,1.676,5.719,0.054,8.228c-0.523,0.811-1.031,1.63-1.529,2.452   c-18.293,30.231-17.965,70.563,0.835,102.746c12.622,21.601,33.022,38.434,55.971,46.184c10.971,3.74,22.265,5.477,33.359,5.156   c0.958-0.026,1.909-0.071,2.861-0.132c0.158-0.01,0.316-0.015,0.474-0.015c2.822,0,5.425,1.591,6.702,4.138   c0.359,0.716,0.734,1.422,1.108,2.127l0.257,0.483C162.21,434.952,197.239,455,234.999,455c38.072,0,73.487-20.269,90.223-51.637   l0.32-0.599c0.365-0.684,0.732-1.368,1.084-2.061c1.338-2.638,4.09-4.254,7.051-4.099c0.967,0.047,1.933,0.079,2.897,0.094   c0.591,0.011,1.151,0.017,1.714,0.017c10.674-0.001,21.379-1.866,31.819-5.544C393.172,383.129,413.571,365.953,426.096,344.039z    M327.608,109.696c9.455-5.459,20.193-8.344,31.056-8.344c22.183,0,42.847,11.922,53.928,31.114   c17.151,29.708,6.937,67.831-22.771,84.983c-14.579,8.417-34.373,13.441-52.95,13.441c-24.759,0-43.398-8.667-52.484-24.405   c-8.701-15.07-7.367-34.688,3.756-55.241C297.252,134.412,312.375,118.491,327.608,109.696z M284.282,235   c0,27.175-22.107,49.282-49.282,49.282S185.717,262.175,185.717,235s22.107-49.282,49.282-49.282S284.282,207.825,284.282,235z    M234.999,29.935c27.658,0,52.26,18.57,59.827,45.159c1.134,3.983-1.177,8.133-5.161,9.267c-0.167,0.047-0.333,0.08-0.5,0.116   c0.352,2.508,0.546,5.066,0.546,7.67c0,2.447-0.133,4.985-0.393,7.584c0.097,0.014,0.194,0.02,0.292,0.038   c4.075,0.746,6.773,4.653,6.028,8.728c-3.055,16.694-10.223,33.432-19.665,45.921c-11.651,15.411-25.82,23.557-40.975,23.557   c-37.977,0-62.212-50.833-62.212-85.827C172.788,57.843,200.696,29.935,234.999,29.935z M57.408,132.467   c11.081-19.192,31.745-31.114,53.928-31.114c10.861,0,21.6,2.885,31.055,8.344c15.233,8.795,30.355,24.715,39.467,41.549   c11.123,20.553,12.457,40.171,3.756,55.241c-9.086,15.738-27.726,24.405-52.484,24.405c-18.577,0-38.371-5.024-52.95-13.441   C50.471,200.298,40.256,162.175,57.408,132.467z M142.39,360.304c-9.771,5.642-20.455,8.322-31.001,8.323   c-21.519,0-42.471-11.157-53.981-31.094c-13.834-23.96-10.047-54.557,9.209-74.405c2.883-2.972,7.631-3.046,10.605-0.16   c0.124,0.12,0.236,0.249,0.35,0.375c1.992-1.555,4.106-2.999,6.356-4.298c2.121-1.224,4.4-2.369,6.782-3.444   c-0.038-0.094-0.082-0.184-0.116-0.28c-1.391-3.901,0.644-8.191,4.546-9.583c15.985-5.7,34.062-7.858,49.593-5.929   c19.168,2.385,33.304,10.582,40.88,23.705c8.701,15.07,7.367,34.688-3.756,55.241C172.746,335.589,157.623,351.509,142.39,360.304z    M234.999,440.065c-34.304,0-62.212-27.908-62.212-62.212c0-34.994,24.235-85.827,62.212-85.827s62.212,50.833,62.212,85.827   C297.211,412.157,269.303,440.065,234.999,440.065z M358.664,368.647c-10.862,0-21.601-2.885-31.056-8.344   c-15.232-8.795-30.355-24.716-39.466-41.549c-11.123-20.553-12.457-40.171-3.756-55.241c9.086-15.738,27.726-24.405,52.484-24.405   c18.577,0,38.371,5.024,52.95,13.441c29.707,17.152,39.922,55.275,22.771,84.983C401.51,356.726,380.846,368.647,358.664,368.647z" fill="#e7453f"/><path d="M439.407,233.229c20.318-34.715,19.781-80.375-1.487-116.784   c-14.423-24.682-37.795-43.937-64.103-52.82c-12.146-4.144-24.68-6.188-37.087-5.979C317.417,22.575,277.676,0,234.999,0   c-43.02,0-83.178,22.829-102.757,58.286c-12.511-0.08-25.118,2.09-37.313,6.387c-26.408,9.209-49.754,28.835-64.05,53.845   C9.696,155.57,9.63,201.82,30.593,236.771c-20.317,34.715-19.781,80.376,1.486,116.784c14.423,24.682,37.795,43.937,64.103,52.82   c11.656,3.976,23.624,5.991,35.573,5.99c0.505,0,1.01-0.003,1.513-0.011C152.581,447.425,192.323,470,234.999,470   c43.019,0,83.177-22.83,102.757-58.286c0.177,0.001,0.354,0.002,0.532,0.002c12.376-0.001,24.759-2.152,36.781-6.389   c26.409-9.209,49.754-28.834,64.049-53.844C460.303,314.431,460.372,268.185,439.407,233.229z M338.289,396.716   c-0.563,0-1.123-0.006-1.714-0.017c-0.965-0.015-1.931-0.047-2.897-0.094c-2.961-0.155-5.713,1.461-7.051,4.099   c-0.352,0.692-0.719,1.377-1.084,2.061l-0.32,0.599C308.487,434.731,273.072,455,234.999,455c-37.761,0-72.789-20.048-89.235-51.07   l-0.257-0.483c-0.374-0.705-0.749-1.411-1.108-2.127c-1.277-2.547-3.88-4.138-6.702-4.138c-0.157,0-0.315,0.005-0.474,0.015   c-0.952,0.061-1.903,0.105-2.861,0.132c-11.095,0.32-22.389-1.416-33.359-5.156c-22.948-7.75-43.349-24.583-55.971-46.184   c-18.8-32.184-19.128-72.515-0.835-102.746c0.498-0.822,1.006-1.642,1.529-2.452c1.622-2.509,1.601-5.74-0.054-8.228   c-0.533-0.801-1.054-1.609-1.564-2.438c-18.869-30.491-18.95-71.378-0.206-104.163c12.526-21.914,32.925-39.091,55.989-47.134   c10.44-3.679,21.146-5.544,31.818-5.544c0.563,0,1.124,0.006,1.715,0.017c0.964,0.015,1.931,0.047,2.896,0.094   c2.953,0.143,5.712-1.461,7.05-4.096c0.351-0.69,0.717-1.373,1.082-2.056l0.323-0.605C161.511,35.269,196.926,15,234.999,15   c37.762,0,72.789,20.048,89.237,51.076l0.19,0.357c0.396,0.747,0.794,1.495,1.175,2.252c1.349,2.685,4.181,4.299,7.166,4.117   c0.954-0.059,1.907-0.104,2.869-0.131c0.866-0.025,1.735-0.039,2.607-0.039c10.3,0,20.639,1.746,30.752,5.195   c22.948,7.75,43.349,24.583,55.972,46.184c18.801,32.184,19.128,72.515,0.833,102.749c-0.497,0.821-1.005,1.64-1.528,2.449   c-1.623,2.511-1.601,5.745,0.058,8.232c0.533,0.8,1.053,1.608,1.561,2.432c18.87,30.492,18.95,71.379,0.205,104.165   c-12.525,21.914-32.924,39.09-55.988,47.133C359.667,394.85,348.962,396.715,338.289,396.716z" fill="#3d2a20"/><path d="M234.999,200.718c-18.903,0-34.282,15.379-34.282,34.282s15.379,34.282,34.282,34.282   s34.282-15.379,34.282-34.282S253.903,200.718,234.999,200.718z" fill="#ec6a65"/><path d="M234.999,185.718c-27.175,0-49.282,22.107-49.282,49.282s22.107,49.282,49.282,49.282   s49.282-22.107,49.282-49.282S262.174,185.718,234.999,185.718z M234.999,269.282c-18.903,0-34.282-15.379-34.282-34.282   s15.379-34.282,34.282-34.282s34.282,15.379,34.282,34.282S253.903,269.282,234.999,269.282z" fill="#96362f"/><path d="M280.399,79.199c-5.741-20.175-24.41-34.265-45.399-34.265c-26.033,0-47.212,21.179-47.212,47.212   c0,28.521,19.824,70.827,47.212,70.827c22.173,0,40.741-29.071,45.884-57.177c0.727-3.977,4.474-6.629,8.436-6.066   c0.26-2.599,0.393-5.137,0.393-7.584c0-2.605-0.194-5.163-0.546-7.67C285.344,85.29,281.485,83.017,280.399,79.199z" fill="#ec6a65"/><path d="M87.678,204.46c12.214,7.052,29.629,11.432,45.45,11.432c11.104,0,31.002-2.196,39.494-16.905   c8.091-14.014,0.993-31.453-3.958-40.602c-7.865-14.533-20.807-28.212-33.774-35.698c-7.178-4.144-15.322-6.334-23.555-6.334   c-16.841,0-32.527,9.048-40.938,23.614C57.381,162.512,65.133,191.443,87.678,204.46z" fill="#ec6a65"/><path d="M80.178,217.45c14.579,8.417,34.373,13.441,52.95,13.441c24.759,0,43.398-8.667,52.484-24.405   c8.701-15.07,7.367-34.688-3.756-55.241c-9.111-16.834-24.233-32.754-39.467-41.549c-9.455-5.459-20.193-8.344-31.055-8.344   c-22.183,0-42.847,11.922-53.928,31.114C40.256,162.175,50.471,200.298,80.178,217.45z M70.398,139.967   c8.41-14.566,24.097-23.614,40.938-23.614c8.232,0,16.377,2.19,23.555,6.334c12.968,7.486,25.909,21.165,33.774,35.698   c4.951,9.148,12.049,26.588,3.958,40.602c-8.492,14.709-28.39,16.905-39.494,16.905c-15.821,0-33.236-4.38-45.45-11.432   C65.133,191.443,57.381,162.512,70.398,139.967z" fill="#96362f"/><path d="M234.999,307.026c-27.388,0-47.212,42.307-47.212,70.827c0,26.033,21.179,47.212,47.212,47.212   s47.212-21.179,47.212-47.212C282.211,349.333,262.387,307.026,234.999,307.026z M219.603,359.332c-4.411,0-8-3.589-8-8   s3.589-8,8-8s8,3.589,8,8S224.014,359.332,219.603,359.332z" fill="#ec6a65"/><path d="M234.999,292.026c-37.977,0-62.212,50.833-62.212,85.827c0,34.304,27.908,62.212,62.212,62.212   s62.212-27.908,62.212-62.212C297.211,342.859,272.976,292.026,234.999,292.026z M234.999,425.065   c-26.033,0-47.212-21.179-47.212-47.212c0-28.521,19.824-70.827,47.212-70.827s47.212,42.307,47.212,70.827   C282.211,403.887,261.033,425.065,234.999,425.065z" fill="#96362f"/><path d="M382.321,265.54c-12.214-7.052-29.63-11.432-45.45-11.432c-11.104,0-31.002,2.196-39.494,16.905   c-8.091,14.014-0.993,31.453,3.958,40.602c7.865,14.532,20.807,28.212,33.773,35.698c7.178,4.144,15.323,6.334,23.556,6.334   c16.841,0,32.527-9.048,40.938-23.614C412.618,307.488,404.866,278.557,382.321,265.54z" fill="#ec6a65"/><path d="M389.821,252.55c-14.579-8.417-34.373-13.441-52.95-13.441c-24.759,0-43.398,8.667-52.484,24.405   c-8.701,15.07-7.367,34.688,3.756,55.241c9.11,16.833,24.233,32.754,39.466,41.549c9.455,5.459,20.193,8.344,31.056,8.344   c22.183,0,42.847-11.922,53.928-31.114C429.743,307.825,419.528,269.702,389.821,252.55z M399.601,330.033   c-8.41,14.566-24.097,23.614-40.938,23.614c-8.232,0-16.378-2.19-23.556-6.334c-12.967-7.486-25.908-21.166-33.773-35.698   c-4.951-9.148-12.049-26.588-3.958-40.602c8.492-14.709,28.39-16.905,39.494-16.905c15.82,0,33.236,4.38,45.45,11.432   C404.866,278.557,412.618,307.488,399.601,330.033z" fill="#96362f"/><path d="M301.334,158.385c-4.951,9.148-12.049,26.588-3.958,40.602c8.492,14.709,28.39,16.905,39.494,16.905   c15.82,0,33.236-4.38,45.45-11.432c22.545-13.017,30.297-41.948,17.28-64.493c-8.41-14.566-24.097-23.614-40.938-23.614   c-8.232,0-16.378,2.19-23.556,6.334C322.141,130.173,309.2,143.853,301.334,158.385z M372.603,152.665c4.411,0,8,3.589,8,8   s-3.589,8-8,8s-8-3.589-8-8S368.192,152.665,372.603,152.665z M352.603,182.665c4.411,0,8,3.589,8,8s-3.589,8-8,8s-8-3.589-8-8   S348.192,182.665,352.603,182.665z" fill="#ec6a65"/><path d="M284.386,206.486c9.086,15.738,27.726,24.405,52.484,24.405c18.577,0,38.371-5.024,52.95-13.441   c29.707-17.152,39.922-55.275,22.771-84.983c-11.081-19.192-31.745-31.114-53.928-31.114c-10.862,0-21.601,2.885-31.056,8.344   c-15.232,8.795-30.355,24.716-39.466,41.549C277.019,171.798,275.685,191.416,284.386,206.486z M358.664,116.353   c16.841,0,32.527,9.048,40.938,23.614c13.017,22.545,5.265,51.477-17.28,64.493c-12.214,7.052-29.63,11.432-45.45,11.432   c-11.104,0-31.002-2.196-39.494-16.905c-8.091-14.014-0.993-31.453,3.958-40.602c7.865-14.532,20.807-28.212,33.773-35.698   C342.286,118.543,350.431,116.353,358.664,116.353z" fill="#96362f"/><path d="M234.999,177.974c15.154,0,29.323-8.146,40.975-23.557c9.442-12.489,16.61-29.227,19.665-45.921   c0.745-4.074-1.953-7.981-6.028-8.728c-0.098-0.018-0.195-0.024-0.292-0.038c-3.962-0.563-7.708,2.089-8.436,6.066   c-5.143,28.105-23.711,57.177-45.884,57.177c-27.388,0-47.212-42.307-47.212-70.827c0-26.033,21.179-47.212,47.212-47.212   c20.989,0,39.658,14.09,45.399,34.265c1.086,3.818,4.945,6.091,8.766,5.277c0.167-0.036,0.334-0.068,0.5-0.116   c3.984-1.134,6.295-5.283,5.161-9.267c-7.567-26.589-32.169-45.159-59.827-45.159c-34.304,0-62.212,27.908-62.212,62.212   C172.788,127.141,197.023,177.974,234.999,177.974z" fill="#96362f"/><path d="M77.382,273.573c-14.61,15.06-17.482,38.277-6.984,56.46c8.734,15.128,24.638,23.595,40.966,23.597   c8.005,0,16.109-2.034,23.526-6.316c12.968-7.486,25.909-21.165,33.774-35.698c4.951-9.148,12.049-26.588,3.958-40.602   c-11.083-19.194-45.535-20.742-72.445-11.147c-3.805,1.356-7.972-0.552-9.467-4.266c-2.382,1.075-4.661,2.22-6.782,3.444   c-2.251,1.299-4.365,2.744-6.356,4.298C80.188,266.25,80.146,270.724,77.382,273.573z" fill="#ec6a65"/><path d="M185.613,263.514c-7.576-13.123-21.712-21.32-40.88-23.705c-15.531-1.93-33.607,0.229-49.593,5.929   c-3.902,1.392-5.937,5.682-4.546,9.583c0.034,0.096,0.078,0.186,0.116,0.28c1.495,3.714,5.662,5.622,9.467,4.266   c26.91-9.595,61.362-8.047,72.445,11.147c8.091,14.014,0.993,31.453-3.958,40.602c-7.865,14.533-20.807,28.212-33.774,35.698   c-7.417,4.282-15.521,6.316-23.526,6.316c-16.328-0.002-32.231-8.469-40.966-23.597c-10.498-18.183-7.626-41.4,6.984-56.46   c2.764-2.849,2.806-7.323,0.19-10.23c-0.114-0.127-0.226-0.255-0.35-0.375c-2.975-2.886-7.723-2.812-10.605,0.16   c-19.256,19.849-23.043,50.445-9.209,74.405c11.511,19.937,32.463,31.094,53.981,31.094c10.546-0.001,21.229-2.682,31.001-8.323   c15.233-8.795,30.355-24.715,39.467-41.549C192.98,298.202,194.314,278.584,185.613,263.514z" fill="#96362f"/><path d="M372.603,168.665c4.411,0,8-3.589,8-8s-3.589-8-8-8s-8,3.589-8,8S368.192,168.665,372.603,168.665z" fill="#3d2a20"/><path d="M352.603,198.665c4.411,0,8-3.589,8-8s-3.589-8-8-8s-8,3.589-8,8S348.192,198.665,352.603,198.665z" fill="#3d2a20"/><path d="M219.603,343.332c-4.411,0-8,3.589-8,8s3.589,8,8,8s8-3.589,8-8S224.014,343.332,219.603,343.332z" fill="#3d2a20"/></g><g transform="matrix(0.1557694971561432 0 0 0.1557694971561432 272.39416809380054 84.39416809380054)" id="L1_4"><path d="M410.982,235c0-50.684-13.374-99.762-37.656-138.194C340.476,44.817,290.058,15,235,15   S129.524,44.816,96.674,96.805c-24.283,38.434-37.657,87.512-37.656,138.194c0,50.685,13.373,99.763,37.656,138.196   C129.524,425.184,179.942,455,235,455s105.476-29.817,138.326-81.806C397.608,334.762,410.982,285.684,410.982,235z    M96.344,174.309c-4.861,19.56-7.326,39.979-7.326,60.69c0,4.143-3.358,7.5-7.5,7.5s-7.5-3.357-7.5-7.5   c0-21.93,2.614-43.566,7.769-64.308c0.999-4.021,5.071-6.472,9.088-5.47C94.894,166.221,97.343,170.289,96.344,174.309z    M122.036,112.829c-6.516,10.313-12.212,21.681-16.931,33.789c-1.155,2.964-3.989,4.778-6.99,4.778   c-0.906,0-1.827-0.165-2.721-0.514c-3.859-1.504-5.769-5.853-4.265-9.712c5.066-13,11.199-25.231,18.227-36.354   C139.399,57.27,185.194,30,235,30c4.142,0,7.5,3.357,7.5,7.5S239.142,45,235,45C190.447,45,149.273,69.723,122.036,112.829z    M310.55,235c0,2.526-0.055,5.031-0.153,7.519c0.052,0.003,0.102,0,0.154,0.004c4.129,0.326,7.212,3.938,6.885,8.067   c-2.373,30.008-11.66,57.761-26.148,78.146c-15.277,21.494-35.267,33.331-56.288,33.331c-22.845,0-44.069-13.678-59.763-38.515   C160.22,299.786,151.949,268.338,151.95,235c0-33.338,8.27-64.786,23.288-88.554c15.693-24.837,36.917-38.515,59.763-38.515   c21.021,0,41.011,11.837,56.288,33.331c14.489,20.386,23.775,48.139,26.148,78.146c0.327,4.129-2.756,7.741-6.885,8.067   c-0.052,0.004-0.102,0.001-0.154,0.004C310.495,229.968,310.55,232.474,310.55,235z" fill="#d6b8a4"/><path d="M386.006,88.794C350.351,32.364,295.311,0,235,0S119.649,32.363,83.994,88.793   c-25.779,40.8-39.976,92.724-39.976,146.206c0,53.484,14.196,105.408,39.976,146.208C119.649,437.637,174.689,470,235,470   s115.351-32.364,151.006-88.794c25.779-40.799,39.976-92.723,39.976-146.206S411.785,129.593,386.006,88.794z M235,455   c-55.058,0-105.476-29.816-138.326-81.805c-24.283-38.434-37.657-87.512-37.656-138.196c0-50.683,13.373-99.761,37.656-138.194   C129.524,44.816,179.942,15,235,15s105.476,29.817,138.326,81.806c24.283,38.433,37.656,87.511,37.656,138.194   s-13.374,99.762-37.656,138.194C340.476,425.183,290.058,455,235,455z" fill="#3d2a20"/><path d="M302.483,220.591c-2.163-27.344-10.48-52.431-23.422-70.638   c-12.385-17.425-28.033-27.021-44.062-27.021c-17.515,0-34.236,11.196-47.082,31.527c-13.522,21.4-20.968,50.003-20.968,80.541   s7.446,59.141,20.968,80.541c12.846,20.331,29.567,31.527,47.082,31.527c16.029,0,31.677-9.597,44.062-27.021   c12.941-18.207,21.259-43.294,23.422-70.638c0.323-4.079,3.858-7.133,7.914-6.89c0.098-2.487,0.153-4.993,0.153-7.519   c0-2.527-0.055-5.032-0.153-7.52C306.338,227.709,302.805,224.669,302.483,220.591z" fill="#a67b60"/><path d="M242.5,37.5c0-4.143-3.358-7.5-7.5-7.5c-49.806,0-95.601,27.27-125.645,74.817   c-7.028,11.122-13.16,23.354-18.227,36.354c-1.504,3.859,0.406,8.208,4.265,9.712c0.895,0.349,1.815,0.514,2.721,0.514   c3.001,0,5.835-1.814,6.99-4.778c4.718-12.108,10.415-23.477,16.931-33.789C149.273,69.723,190.447,45,235,45   C239.142,45,242.5,41.643,242.5,37.5z" fill="#ffffff"/><path d="M90.875,165.222c-4.017-1.002-8.089,1.448-9.088,5.47c-5.155,20.741-7.769,42.378-7.769,64.308   c0,4.143,3.358,7.5,7.5,7.5s7.5-3.357,7.5-7.5c0-20.712,2.465-41.131,7.326-60.69C97.343,170.289,94.894,166.221,90.875,165.222z" fill="#ffffff"/><path d="M317.437,219.409c-2.373-30.008-11.66-57.761-26.148-78.146   c-15.277-21.494-35.267-33.331-56.288-33.331c-22.845,0-44.069,13.678-59.763,38.515C160.22,170.214,151.949,201.662,151.95,235   c0,33.338,8.27,64.786,23.288,88.554c15.693,24.837,36.917,38.515,59.763,38.515c21.021,0,41.011-11.837,56.288-33.331   c14.489-20.386,23.775-48.139,26.148-78.146c0.327-4.129-2.756-7.741-6.885-8.067c-0.052-0.004-0.102-0.001-0.154-0.004   c-4.056-0.243-7.591,2.811-7.914,6.89c-2.163,27.344-10.48,52.431-23.422,70.638c-12.385,17.425-28.033,27.021-44.062,27.021   c-17.515,0-34.236-11.196-47.082-31.527c-13.522-21.4-20.968-50.003-20.968-80.541s7.446-59.141,20.968-80.541   c12.846-20.331,29.567-31.527,47.082-31.527c16.029,0,31.677,9.597,44.062,27.021c12.941,18.207,21.259,43.294,23.422,70.638   c0.322,4.078,3.855,7.119,7.914,6.89c0.052-0.003,0.102,0,0.154-0.004C314.681,227.15,317.763,223.538,317.437,219.409z" fill="#3d2a20"/></g></defs><g fi:class="KUsePattern"><pattern id="pattern_L1_1" width="350" height="350" patternUnits="userSpaceOnUse"><use xlink:href="#L1_1" x="-350" y="-350"/><use xlink:href="#L1_1" x="0" y="-350"/><use xlink:href="#L1_1" x="350" y="-350"/><use xlink:href="#L1_1" x="-350" y="0"/><use xlink:href="#L1_1" x="0" y="0"/><use xlink:href="#L1_1" x="350" y="0"/><use xlink:href="#L1_1" x="-350" y="350"/><use xlink:href="#L1_1" x="0" y="350"/><use xlink:href="#L1_1" x="350" y="350"/></pattern><rect x="0" y="0" width="100%" height="100%" fill="url(#pattern_L1_1)"/></g><g fi:class="KUsePattern"><pattern id="pattern_L1_2" width="350" height="350" patternUnits="userSpaceOnUse"><use xlink:href="#L1_2" x="-350" y="-350"/><use xlink:href="#L1_2" x="0" y="-350"/><use xlink:href="#L1_2" x="350" y="-350"/><use xlink:href="#L1_2" x="-350" y="0"/><use xlink:href="#L1_2" x="0" y="0"/><use xlink:href="#L1_2" x="350" y="0"/><use xlink:href="#L1_2" x="-350" y="350"/><use xlink:href="#L1_2" x="0" y="350"/><use xlink:href="#L1_2" x="350" y="350"/></pattern><rect x="0" y="0" width="100%" height="100%" fill="url(#pattern_L1_2)"/></g><g fi:class="KUsePattern"><pattern id="pattern_L1_3" width="350" height="350" patternUnits="userSpaceOnUse"><use xlink:href="#L1_3" x="-350" y="-350"/><use xlink:href="#L1_3" x="0" y="-350"/><use xlink:href="#L1_3" x="350" y="-350"/><use xlink:href="#L1_3" x="-350" y="0"/><use xlink:href="#L1_3" x="0" y="0"/><use xlink:href="#L1_3" x="350" y="0"/><use xlink:href="#L1_3" x="-350" y="350"/><use xlink:href="#L1_3" x="0" y="350"/><use xlink:href="#L1_3" x="350" y="350"/></pattern><rect x="0" y="0" width="100%" height="100%" fill="url(#pattern_L1_3)"/></g><g fi:class="KUsePattern"><pattern id="pattern_L1_4" width="350" height="350" patternUnits="userSpaceOnUse"><use xlink:href="#L1_4" x="-350" y="-350"/><use xlink:href="#L1_4" x="0" y="-350"/><use xlink:href="#L1_4" x="350" y="-350"/><use xlink:href="#L1_4" x="-350" y="0"/><use xlink:href="#L1_4" x="0" y="0"/><use xlink:href="#L1_4" x="350" y="0"/><use xlink:href="#L1_4" x="-350" y="350"/><use xlink:href="#L1_4" x="0" y="350"/><use xlink:href="#L1_4" x="350" y="350"/></pattern><rect x="0" y="0" width="100%" height="100%" fill="url(#pattern_L1_4)"/></g></svg>